<?xml version="1.0" encoding="UTF-8"?>
<svg xmlns="http://www.w3.org/2000/svg" version="1.1" viewBox="0 0 300 300">
  <!-- Generator: Adobe Illustrator 29.8.2, SVG Export Plug-In . SVG Version: 2.1.1 Build 3)  -->
  <defs>
    <style>
      .st0 {
        fill: #fff;
      }
    </style>
  </defs>
  <g id="Layer_2">
    <rect width="300" height="300"/>
  </g>
  <g id="Layer_1">
    <path class="st0" d="M145.08,138.83c12.62-11.76,28.96-16.06,28.96-33.55,0-13.48-10.61-21.51-24.37-21.51-17.21,0-28.96,11.18-28.96,29.54h-46.17c.86-40.43,29.25-68.25,77.14-68.25,42.73,0,71.4,23.8,71.4,58.5,0,26.96-14.34,38.14-26.96,46.46-12.04,7.74-19.5,11.76-24.09,17.21-4.01,5.16-5.45,10.32-5.45,19.5h-41.29c0-29.25,6.02-36.42,19.79-47.89ZM120.71,205.64h49.04v48.18h-49.04v-48.18Z"/>
  </g>
</svg>